HIERARCHY
ROOT Hips
{
  OFFSET 50.3161 93.5765 16.7413
  CHANNELS 6 Xposition Yposition Zposition Zrotation Xrotation Yrotation
  JOINT spine
  {
    OFFSET 0 7.4756 0.429885
    CHANNELS 3 Zrotation Xrotation Yrotation
    JOINT spine1
    {
      OFFSET 0 9.92301 0
      CHANNELS 3 Zrotation Xrotation Yrotation
      JOINT spine2
      {
        OFFSET 0 9.50804 0
        CHANNELS 3 Zrotation Xrotation Yrotation
        JOINT Neck
        {
          OFFSET 0 24.4111 1.16384
          CHANNELS 3 Zrotation Xrotation Yrotation
          JOINT Head
          {
            OFFSET 0 7.37523 0
            CHANNELS 3 Zrotation Xrotation Yrotation
            End Site
            {
              OFFSET 0 17.8522 -5.88741
            }
          }
        }
        JOINT RightShoulder
        {
          OFFSET -4.00356 10.2679 -0.557468
          CHANNELS 3 Zrotation Xrotation Yrotation
          JOINT RightArm
          {
            OFFSET 0 13.4673 0
            CHANNELS 3 Zrotation Xrotation Yrotation
            JOINT RightArmRoll
            {
              OFFSET 0 6.79858 0
              CHANNELS 3 Zrotation Xrotation Yrotation
              JOINT RightForeArm
              {
                OFFSET 0 19.8018 0
                CHANNELS 3 Zrotation Xrotation Yrotation
                JOINT RightForeArmRoll
                {
                  OFFSET 0 7.62905 0
                  CHANNELS 3 Zrotation Xrotation Yrotation
                  JOINT RightHand
                  {
                    OFFSET 0 15.3098 0
                    CHANNELS 3 Zrotation Xrotation Yrotation
                    End Site
                    {
                      OFFSET 0 0 0
                    }
                  }
                }
              }
            }
          }
        }
        JOINT LeftShoulder
        {
          OFFSET 4.00356 10.2679 -0.557468
          CHANNELS 3 Zrotation Xrotation Yrotation
          JOINT LeftArm
          {
            OFFSET 0 13.4673 0
            CHANNELS 3 Zrotation Xrotation Yrotation
            JOINT LeftArmRoll
            {
              OFFSET 0 6.79858 0
              CHANNELS 3 Zrotation Xrotation Yrotation
              JOINT LeftForeArm
              {
                OFFSET 0 19.8018 0
                CHANNELS 3 Zrotation Xrotation Yrotation
                JOINT LeftForeArmRoll
                {
                  OFFSET 0 7.62905 0
                  CHANNELS 3 Zrotation Xrotation Yrotation
                  JOINT LeftHand
                  {
                    OFFSET 0 15.3098 0
                    CHANNELS 3 Zrotation Xrotation Yrotation
                    End Site
                    {
                      OFFSET 0 0 0
                    }
                  }
                }
              }
            }
          }
        }
      }
    }
  }
  JOINT RightUpLeg
  {
    OFFSET -6.62609 -1.21505 -1.01927
    CHANNELS 3 Zrotation Xrotation Yrotation
    JOINT RightUpLegRoll
    {
      OFFSET 0 17.9517 0
      CHANNELS 3 Zrotation Xrotation Yrotation
      JOINT RightLeg
      {
        OFFSET 0 -22.2304 0
        CHANNELS 3 Zrotation Xrotation Yrotation
        JOINT RightLegRoll
        {
          OFFSET 0 22.3032 0
          CHANNELS 3 Zrotation Xrotation Yrotation
          JOINT RightFoot
          {
            OFFSET 0 18.5636 0
            CHANNELS 3 Zrotation Xrotation Yrotation
            JOINT RightToeBase
            {
              OFFSET 0 15.5183 0
              CHANNELS 3 Zrotation Xrotation Yrotation
              End Site
              {
                OFFSET 0.00657761 7.51539 -0.866262
              }
            }
          }
        }
      }
    }
  }
  JOINT LeftUpLeg
  {
    OFFSET 6.62609 -1.21505 -1.01927
    CHANNELS 3 Zrotation Xrotation Yrotation
    JOINT LeftUpLegRoll
    {
      OFFSET 0 17.9518 0
      CHANNELS 3 Zrotation Xrotation Yrotation
      JOINT LeftLeg
      {
        OFFSET 0 22.2303 0
        CHANNELS 3 Zrotation Xrotation Yrotation
        JOINT LeftLegRoll
        {
          OFFSET 0 22.5093 0
          CHANNELS 3 Zrotation Xrotation Yrotation
          JOINT LeftFoot
          {
            OFFSET 0 18.3575 0
            CHANNELS 3 Zrotation Xrotation Yrotation
            JOINT LeftToeBase
            {
              OFFSET 0 15.5183 0
              CHANNELS 3 Zrotation Xrotation Yrotation
              End Site
              {
                OFFSET -0.029478 7.51538 -0.866263
              }
            }
          }
        }
      }
    }
  }
}
MOTION
Frames: 5
Frame Time: 0.00208333
51.8093 93.3305 14.9031 -0.753101 -1.29758 -4.96377 0.0593474 -1.48743 0.0204356 0.119001 1.02762 0.0382536 0.118619 2.67271 0.0362835 -10.1476 7.88978 -1.74565 10.2997 6.46573 -3.61453 65.1784 -3.15294 -2.48903 106.123 20.9698 21.8562 4.88721e-007 -2.04203e-006 -4.97007e-006 1.64373 0.0172594 -1.4986 -2.66651e-006 3.28422e-006 -3.10248 8.03006 -4.95138 0.69765 -74.8695 -3.03051 3.19275 -94.4117 16.3054 -30.0308 -2.1979e-007 1.77028e-006 -6.52828e-008 4.52637 -0.0278574 0.815283 2.15147e-006 -2.49587e-006 3.05661 -8.0301 -4.95138 -0.697632 -178.447 3.59404 -2.28163 -180 1.52561e-005 178.933 178.51 10.9905 179.605 -2.92185e-006 -3.05856e-006 0.200129 -19.5865 69.1072 20.5142 8.13015 25.233 -3.48503 -178.351 0.723711 1.59018 4.54188e-006 -4.6773e-006 -1.00211 -3.88052 -7.08015 -0.0416206 2.4583e-006 1.70791e-006 -0.0885934 18.3855 67.8297 -19.3833 -8.14234 25.2323 3.49023 
51.809 93.3311 14.92 -0.752253 -1.28883 -4.98892 0.0607376 -1.49311 0.0196625 0.121768 1.0159 0.0363148 0.121411 2.66098 0.0342973 -10.1815 7.95349 -1.74644 10.3575 6.48997 -3.62868 65.1436 -3.13539 -2.47653 106.152 20.9762 21.8432 4.88721e-007 -2.04203e-006 -4.97007e-006 1.64151 0.0172594 -1.49913 -2.66651e-006 3.28422e-006 -3.10248 8.03006 -4.95138 0.69765 -74.9104 -2.99648 3.18107 -94.3954 16.2088 -30.0427 -2.1979e-007 1.77028e-006 -6.52828e-008 4.507 -0.0278581 0.81535 2.15147e-006 -2.49587e-006 3.05661 -8.0301 -4.95138 -0.697632 -178.434 3.6164 -2.30675 -180 1.52561e-005 178.932 178.545 11.0431 179.599 -2.92185e-006 -3.05856e-006 0.200509 -19.5763 69.0958 20.5026 8.13015 25.233 -3.48503 -178.344 0.723001 1.57344 4.54188e-006 -4.6773e-006 -1.00205 -3.89908 -7.0989 -0.0424627 2.4583e-006 1.70791e-006 -0.0885785 18.3884 67.8332 -19.3868 -8.14234 25.2323 3.49023 
51.809 93.3242 14.9468 -0.751346 -1.27957 -5.01348 0.0622268 -1.49904 0.0189815 0.124734 1.00364 0.0345413 0.1244 2.64872 0.032473 -10.2176 8.01973 -1.74697 10.4177 6.5135 -3.64311 65.1079 -3.1167 -2.46332 106.182 20.9826 21.8306 4.88721e-007 -2.04203e-006 -4.97007e-006 1.63866 0.0172594 -1.49967 -2.66651e-006 3.28422e-006 -3.10248 8.03006 -4.95138 0.69765 -74.9535 -2.96088 3.16889 -94.3763 16.114 -30.055 -2.1979e-007 1.77028e-006 -6.52828e-008 4.48728 -0.0278588 0.815401 2.15147e-006 -2.49587e-006 3.05661 -8.0301 -4.95138 -0.697632 -178.419 3.63934 -2.33212 -180 1.52561e-005 178.932 178.581 11.0954 179.593 -2.92185e-006 -3.05856e-006 0.200882 -19.5663 69.0845 20.4911 8.13015 25.233 -3.48503 -178.337 0.723111 1.55612 4.54188e-006 -4.6773e-006 -1.00197 -3.91828 -7.11805 -0.0433281 2.4583e-006 1.70791e-006 -0.0885565 18.3914 67.8367 -19.3904 -8.14234 25.2323 3.49023 
51.8171 93.3206 14.9644 -0.750393 -1.26995 -5.03761 0.0637853 -1.50515 0.018365 0.127839 0.991013 0.0328834 0.127526 2.63609 0.0307621 -10.2553 8.08774 -1.74733 10.4797 6.53654 -3.65774 65.0715 -3.09722 -2.44963 106.213 20.989 21.8182 4.88721e-007 -2.04203e-006 -4.97007e-006 1.63537 0.0172595 -1.50022 -2.66651e-006 3.28422e-006 -3.10248 8.03006 -4.95138 0.69765 -74.9982 -2.92418 3.15636 -94.3554 16.0205 -30.0675 -2.1979e-007 1.77028e-006 -6.52828e-008 4.46733 -0.0278596 0.815441 2.15147e-006 -2.49587e-006 3.05661 -8.0301 -4.95138 -0.697632 -178.405 3.66267 -2.35767 -180 1.52561e-005 178.931 178.617 11.1475 179.587 -2.92185e-006 -3.05856e-006 0.201252 -19.5564 69.0735 20.4799 8.13015 25.233 -3.48503 -178.33 0.723795 1.53839 4.54188e-006 -4.6773e-006 -1.00186 -3.93792 -7.13749 -0.0442098 2.4583e-006 1.70791e-006 -0.0885294 18.3944 67.8402 -19.3939 -8.14234 25.2323 3.49023 
51.8178 93.3179 14.9867 -0.749411 -1.26012 -5.06151 0.0653834 -1.51137 0.0177855 0.131024 0.978169 0.0312916 0.130732 2.62325 0.029116 -10.2937 8.15676 -1.74758 10.5426 6.5593 -3.67248 65.0347 -3.07727 -2.43565 106.244 20.9955 21.8061 4.88721e-007 -2.04203e-006 -4.97007e-006 1.63182 0.0172595 -1.50077 -2.66651e-006 3.28422e-006 -3.10248 8.03006 -4.95138 0.69765 -75.0438 -2.88685 3.14363 -94.3334 15.9276 -30.0801 -2.1979e-007 1.77028e-006 -6.52828e-008 4.44725 -0.0278603 0.815475 2.15147e-006 -2.49587e-006 3.05661 -8.0301 -4.95138 -0.697632 -178.391 3.68624 -2.38333 -180 1.52561e-005 178.93 178.652 11.1994 179.581 -2.92185e-006 -3.05856e-006 0.201619 -19.5467 69.0625 20.4687 8.13015 25.233 -3.48503 -178.323 0.724806 1.52043 4.54188e-006 -4.6773e-006 -1.00174 -3.95781 -7.15709 -0.0451008 2.4583e-006 1.70791e-006 -0.0884994 18.3974 67.8437 -19.3975 -8.14234 25.2323 3.49023 
